# xmcd
#
# Track frame offsets:
#	150
#	16582
#	31536
#	46165
#	61698
#	82804
#	99247
#	115553
#	132470
#	149566
#	164808
#	186950
#	203483
#	220494
#	239993
#	261074
#	274351
#	291160
#	309016
#	324824
#
# Disc length: 4585 seconds
#
# Revision: 0
# Processed by: cddbd v1.5.2PL0 Copyright (c) Steve Scherf et al.
# Submitted via: EZCDAudioConverter 2.0.7.1
#
DISCID=1311e714
DTITLE=Country To Country
DYEAR=2015
DGENRE=Country
TTITLE0=Luke Bryan - I Don't Want This Night To End
TTITLE1=Lady Antebellum - Bartender
TTITLE2=Little Big Town - Girl Crush
TTITLE3=Darius Rucker - Homegrown Honey
TTITLE4=Dierks Bentley - I Hold On
TTITLE5=Kip Moore - Het Pretty Girl
TTITLE6=Doug Seegers - Going Down The River
TTITLE7=The Shires - Nashvill Grey Skies
TTITLE8=Vince Gill - Don't Let Our Love Start Slippin' Away
TTITLE9=Ward Thoams - Way Back When
TTITLE10=Lee Ann Womack - I Hope You Dance
TTITLE11=Chris Young - Tomorrow
TTITLE12=Carrie Underwood - Jeses, Take The Wheel
TTITLE13=Raintown - Just One Kiss
TTITLE14=Brad Paisley - Letter To Me
TTITLE15=Alan West - Come On Home
TTITLE16=The Band Perry - If I Die Young
TTITLE17=Zac Brown Band - Chicken Fried
TTITLE18=Florida Georgia Line - Cruise
TTITLE19=Martina McBride - One Night
EXTD=
EXTT0=
EXTT1=
EXTT2=
EXTT3=
EXTT4=
EXTT5=
EXTT6=
EXTT7=
EXTT8=
EXTT9=
EXTT10=
EXTT11=
EXTT12=
EXTT13=
EXTT14=
EXTT15=
EXTT16=
EXTT17=
EXTT18=
EXTT19=
PLAYORDER=
